<?xml version="1.0" standalone="no"?>
<!DOCTYPE svg PUBLIC "-//W3C//DTD SVG 20010904//EN"
 "http://www.w3.org/TR/2001/REC-SVG-20010904/DTD/svg10.dtd">
<svg version="1.0" xmlns="http://www.w3.org/2000/svg"
 width="400.000000pt" height="400.000000pt" viewBox="0 0 400.000000 400.000000"
 preserveAspectRatio="xMidYMid meet">

<g transform="translate(0.000000,400.000000) scale(0.100000,-0.100000)"
fill="#000000" stroke="none">
<path d="M1838 3940 c-781 -73 -1433 -592 -1677 -1336 -197 -600 -85 -1265
300 -1776 79 -105 270 -295 374 -373 250 -187 535 -310 848 -367 170 -31 478
-31 647 0 206 38 364 90 545 179 437 218 771 587 950 1051 138 359 161 766 66
1155 -87 351 -245 638 -487 881 -81 81 -214 196 -226 196 -3 0 -44 -51 -91
-114 l-86 -114 78 -65 c282 -236 486 -592 552 -963 25 -140 30 -392 10 -519
-57 -366 -208 -670 -461 -926 -318 -321 -718 -489 -1165 -490 -286 0 -486 46
-740 171 -394 194 -702 549 -833 961 -62 193 -76 284 -76 504 -1 232 13 329
75 518 84 259 205 454 403 653 241 240 506 384 842 456 95 20 137 23 324 23
167 0 235 -4 304 -18 48 -10 90 -17 92 -15 2 2 17 60 34 128 17 69 33 130 35
137 12 37 -434 82 -637 63z"/>
<path d="M1690 2887 c-46 -24 -37 -43 23 -50 108 -11 177 -68 197 -161 8 -37
10 -197 8 -508 -4 -526 -2 -514 -97 -609 -82 -81 -149 -104 -306 -104 -113 0
-124 2 -185 31 -112 53 -187 150 -210 273 -6 31 -10 236 -10 486 0 532 1 536
114 590 22 11 41 27 41 35 0 13 -37 15 -270 15 -148 0 -276 -4 -282 -9 -24
-16 -13 -34 25 -41 59 -11 101 -35 120 -69 15 -28 18 -87 22 -571 5 -495 7
-544 24 -590 60 -160 186 -263 369 -301 89 -20 328 -14 398 9 95 31 171 78
240 148 l68 70 6 -38 c15 -87 48 -201 73 -253 41 -86 149 -188 252 -238 120
-59 195 -77 320 -77 114 0 105 -3 252 87 32 20 118 60 193 89 l135 54 0 226
c0 258 1 261 85 295 25 11 45 24 45 31 0 6 3 18 6 27 6 14 -22 16 -264 16
-237 0 -271 -2 -276 -16 -12 -30 -6 -54 12 -54 31 0 108 -30 131 -51 20 -19
21 -29 21 -190 0 -185 -6 -214 -56 -261 -60 -56 -160 -77 -286 -59 -297 41
-419 237 -405 651 6 171 27 263 88 388 71 143 154 215 277 241 65 13 216 14
296 1 97 -16 159 -79 203 -209 19 -57 25 -66 45 -63 12 1 24 5 27 8 3 2 7 101
9 219 4 185 2 215 -11 221 -8 3 -43 -3 -77 -14 -57 -17 -69 -18 -144 -6 -109
18 -298 18 -385 -1 -189 -40 -335 -154 -446 -350 l-45 -80 0 272 c0 164 4 293
11 325 13 60 52 105 99 114 30 6 58 39 45 52 -4 4 -118 8 -253 10 -187 2 -253
-1 -272 -11z"/>
</g>
</svg>
